# xmcd
#
# Track frame offsets: 
#        150
#        19389
#        36599
#        52158
#        73166
#        96575
#        110794
#
# Disc length: 1643 seconds
#
# Revision: 0
# Processed by: cddbd v1.5.2PL0 Copyright (c) Steve Scherf et al.
# Submitted via: ExactAudioCopyFreeDBPlugin 1.0
#
DISCID=72066907
DTITLE=The Bushels - The Bushels
DYEAR=2016
DGENRE=Bluegrass
TTITLE0=Everytime
TTITLE1=Down to the Wire
TTITLE2=Better Way to Be
TTITLE3=Cherokee Girl
TTITLE4=Someday
TTITLE5=Madeline
TTITLE6=Heading Home
EXTD=
EXTT0=
EXTT1=
EXTT2=
EXTT3=
EXTT4=
EXTT5=
EXTT6=
PLAYORDER=
